<svg xmlns="http://www.w3.org/2000/svg" viewBox="0 0 726.27 161.73">
  <path fill="#064f88" d="M234.17 48.99h12.33v61.66h-12.33l-28.89-39.99v39.99h-12.33V48.99h12.33l28.89 39.99V48.99Zm62.45 38.75v1.76c0 3.29-.51 6.28-1.54 8.98s-2.48 5.02-4.36 6.96c-1.88 1.94-4.13 3.44-6.74 4.49-2.61 1.06-5.5 1.59-8.68 1.59s-6.06-.53-8.68-1.59c-2.61-1.06-4.86-2.55-6.74-4.49-1.88-1.94-3.33-4.26-4.36-6.96-1.03-2.7-1.54-5.7-1.54-8.98v-1.76c0-3.29.51-6.28 1.54-8.98s2.48-5.02 4.36-6.96c1.88-1.94 4.12-3.44 6.74-4.49 2.61-1.06 5.51-1.59 8.68-1.59s6.06.53 8.68 1.59c2.61 1.06 4.86 2.55 6.74 4.49 1.88 1.94 3.33 4.26 4.36 6.96 1.03 2.7 1.54 5.7 1.54 8.98Zm-11.27 1.76v-1.76c0-3.52-.88-6.43-2.64-8.72s-4.23-3.44-7.4-3.44-5.64 1.15-7.4 3.44-2.64 5.2-2.64 8.72v1.76c0 3.52.88 6.43 2.64 8.72 1.76 2.29 4.23 3.44 7.4 3.44s5.64-1.15 7.4-3.44c1.76-2.29 2.64-5.2 2.64-8.72Zm46.15-22.9h11.8l-14.45 44.04h-14.8L299.6 66.6h11.8l10.04 30.48 10.04-30.48Zm59.89 44.04h-12.33v-2.82c-1.35 1.23-2.94 2.19-4.76 2.86-1.82.67-3.82 1.01-5.99 1.01-2.88 0-5.45-.48-7.71-1.45s-4.15-2.32-5.68-4.05c-1.53-1.73-2.7-3.77-3.52-6.12-.82-2.35-1.23-4.93-1.23-7.75V66.6h12.33v25.72c0 2.23.78 4.08 2.33 5.55 1.56 1.47 3.54 2.2 5.95 2.2s4.39-.73 5.95-2.2c1.56-1.47 2.33-3.32 2.33-5.55V66.6h12.33v44.04Zm7.75 0V66.6h12.33v2.73c1.17-.82 2.5-1.48 3.96-1.98 1.47-.5 3.08-.75 4.84-.75 2.7 0 5.12.47 7.27 1.41 2.14.94 3.95 2.26 5.42 3.96 1.53-1.7 3.38-3.02 5.55-3.96s4.61-1.41 7.31-1.41 5.06.46 7.27 1.37c2.2.91 4.08 2.17 5.64 3.79 1.56 1.62 2.76 3.57 3.61 5.86.85 2.29 1.28 4.84 1.28 7.66v25.37h-12.33V85.28c0-2.35-.63-4.23-1.89-5.64-1.26-1.41-2.92-2.11-4.98-2.11s-3.71.71-4.98 2.11c-1.26 1.41-1.89 3.29-1.89 5.64v25.37h-12.33V85.28c0-2.35-.63-4.23-1.89-5.64-1.26-1.41-2.92-2.11-4.98-2.11s-3.71.71-4.98 2.11c-1.26 1.41-1.89 3.29-1.89 5.64v25.37h-12.33Z" />
  <path fill="#4a92c9" d="M516.73 73.65V48.99h12.33v61.66h-12.33V85.99h-26.42v24.66h-12.33V48.99h12.33v24.66h26.42Zm40.34 37.88c-3.17 0-6.06-.5-8.68-1.5-2.61-1-4.86-2.42-6.74-4.27-1.88-1.85-3.33-4.11-4.36-6.78-1.03-2.67-1.54-5.65-1.54-8.94v-2.29c0-3.29.51-6.28 1.54-8.98s2.48-5.02 4.36-6.96c1.88-1.94 4.12-3.44 6.74-4.49 2.61-1.06 5.5-1.59 8.68-1.59s6.06.53 8.68 1.59c2.61 1.06 4.86 2.55 6.74 4.49 1.88 1.94 3.33 4.26 4.36 6.96 1.03 2.7 1.54 5.7 1.54 8.98v3.7h-31.27c.23 3.17 1.2 5.67 2.91 7.49 1.7 1.82 4.05 2.73 7.05 2.73 1.82 0 3.61-.37 5.37-1.1 1.76-.73 3.14-1.69 4.14-2.86l8.28 6.69c-.88 1.12-2 2.11-3.35 2.99-1.35.88-2.82 1.63-4.4 2.25-1.58.62-3.25 1.09-4.98 1.41-1.73.32-3.42.48-5.06.48Zm-9.51-27.83h19.03c-.59-2.47-1.67-4.43-3.26-5.9-1.59-1.47-3.67-2.2-6.25-2.2s-4.67.73-6.25 2.2c-1.58 1.47-2.67 3.44-3.26 5.9Zm75.48-2.83v29.77h-11.27v-3.35c-3.11 2.82-7.11 4.23-11.98 4.23-5.58 0-9.79-1.23-12.64-3.7-2.85-2.47-4.27-5.64-4.27-9.51 0-2.29.48-4.23 1.45-5.81.97-1.59 2.23-2.92 3.79-4.01 1.55-1.09 3.3-1.95 5.24-2.6 1.94-.65 3.89-1.13 5.86-1.45 1.97-.32 3.86-.53 5.68-.62 1.82-.09 3.35-.13 4.58-.13h2.29v-2.82c0-1.53-.69-2.73-2.07-3.61-1.38-.88-3.19-1.32-5.42-1.32-1.64 0-3.38.32-5.2.97-1.82.65-3.41 1.73-4.76 3.26l-7.22-7.4c2-1.94 4.51-3.6 7.53-4.98 3.02-1.38 6.15-2.07 9.38-2.07 2.82 0 5.4.37 7.75 1.1 2.35.73 4.36 1.76 6.03 3.08s2.96 2.91 3.88 4.76c.91 1.85 1.37 3.92 1.37 6.21Zm-11.45 10.57h-3c-2 0-3.91.07-5.72.22-1.82.15-3.41.43-4.76.84-1.35.41-2.44.97-3.26 1.67-.82.7-1.23 1.62-1.23 2.73 0 1.59.73 2.86 2.2 3.83 1.47.97 3.26 1.45 5.37 1.45 2.76 0 5.08-.94 6.96-2.82s3.02-4.52 3.44-7.93Zm19.03 19.2V48.98h12.33v61.66h-12.33Zm19.55-34.7V66.6h5.11V54.27h12.33V66.6h7.58v9.34h-7.58v17.44c0 1.88.76 3.35 2.29 4.4 1.53 1.06 3.46 1.59 5.81 1.59v11.27c-2.99 0-5.74-.28-8.24-.84-2.5-.56-4.64-1.45-6.43-2.69-1.79-1.23-3.2-2.8-4.23-4.71-1.03-1.91-1.54-4.21-1.54-6.91V75.94h-5.11Zm33.82-26.95h12.33v20.26c3.05-2.11 6.63-3.17 10.75-3.17 2.94 0 5.58.48 7.93 1.45 2.35.97 4.36 2.36 6.03 4.18 1.67 1.82 2.96 4.01 3.88 6.56.91 2.55 1.37 5.42 1.37 8.59v23.78h-11.27V86.86c0-2.99-.88-5.47-2.64-7.44-1.76-1.97-3.99-2.95-6.69-2.95s-4.93.98-6.69 2.95c-1.76 1.97-2.64 4.45-2.64 7.44v23.78h-12.33V48.98Z" />
  <path fill="#064f88" d="M54.02 95.47c-.54-7.06-6.88-17.41-6.88-17.41s-1.04-1.95-2.33-4.49c-2.32-.35-7.5-1.02-11.31-.75-5.06.35-10.99 1.1-18.82 6.35C6.08 84.94 0 95.81 0 95.81l16.43 8.66s12.53 6.29 18.82 6.59c6.29.29 10.53.06 16.88-6.18 0 0 2.38-2.93 1.88-9.41Z" />
  <path fill="#4a92c9" d="M89.14 46.12c-1.24-8.18-3.65-13.59-6.47-20.47C79.85 18.77 69.14 0 69.14 0S46.86 16.59 40.38 32.65c-6.61 16.38-1.53 26.76-.53 30.18.59 2.03 3.06 7.03 4.96 10.75 1.3 2.54 2.33 4.49 2.33 4.49s6.34 10.35 6.88 17.41c.5 6.48-1.88 9.41-1.88 9.41l18-18.35 9.41-9.59s5.65-5.18 7.82-11.59c2.18-6.41 3-11.06 1.76-19.24Z" />
  <path fill="#064f88" d="M67.26 107.71c7.07.38 17.57 6.46 17.57 6.46s1.97.99 4.54 2.23c.4 2.31 1.19 7.47 1.02 11.29-.23 5.07-.83 11.02-5.9 18.97-5.56 8.72-16.28 15.06-16.28 15.06l-9.05-16.22s-6.59-12.38-7.04-18.66c-.44-6.29-.31-10.53 5.77-17.02 0 0 2.87-2.45 9.36-2.11Z" />
  <path fill="#4a92c9" d="M115.76 71.43c8.2 1.04 13.67 3.32 20.62 5.98 6.95 2.66 25.96 12.91 25.96 12.91s-16.05 22.67-31.95 29.54c-16.22 7-26.72 2.17-30.16 1.25-2.04-.55-7.1-2.89-10.86-4.7-2.57-1.24-4.54-2.23-4.54-2.23s-10.5-6.09-17.57-6.46c-6.49-.34-9.36 2.11-9.36 2.11L75.82 91.4l9.36-9.64s5.04-5.77 11.4-8.1 10.98-3.26 19.19-2.22Z" />
</svg>