<svg xmlns="http://www.w3.org/2000/svg" viewBox="0 0 300 300">
  <path fill="#084986" d="M100.225 176.587c-.989-12.834-12.514-31.658-12.514-31.658s-1.883-3.538-4.243-8.157c-4.222-.63-13.638-1.846-20.57-1.362-9.2.641-19.988 1.994-34.225 11.551C13.057 157.442 2 177.213 2 177.213l29.881 15.738S54.663 204.4 66.107 204.93s19.145.107 30.7-11.23c0 0 4.326-5.331 3.418-17.113Z" />
  <path fill="#428cc8" d="M164.077 86.852c-2.246-14.866-6.631-24.706-11.765-37.22S127.712 3 127.712 3 87.2 33.161 75.412 62.36c-12.026 29.778-2.781 48.664-.963 54.867 1.081 3.687 5.562 12.777 9.019 19.545 2.36 4.619 4.243 8.157 4.243 8.157s11.525 18.824 12.514 31.658c.908 11.782-3.425 17.113-3.425 17.113l32.728-33.37 17.115-17.43s10.268-9.412 14.225-21.07 5.455-20.107 3.209-34.974Z" />
  <path fill="#084986" d="M124.294 198.845c12.855.683 31.948 11.755 31.948 11.755s3.582 1.8 8.256 4.047c.73 4.206 2.171 13.59 1.853 20.532-.422 9.211-1.517 20.029-10.731 34.491-10.106 15.861-29.608 27.387-29.608 27.387l-16.446-29.5s-11.985-22.5-12.792-33.93-.564-19.137 10.494-30.955c0 0 5.226-4.454 17.026-3.827Z" />
  <path fill="#428cc8" d="M212.48 132.87c14.916 1.891 24.858 6.04 37.49 10.874s47.206 23.48 47.206 23.48-29.186 41.217-58.1 53.7c-29.483 12.733-48.584 3.941-54.829 2.271-3.712-.992-12.9-5.255-19.754-8.55-4.674-2.249-8.256-4.047-8.256-4.047s-19.093-11.072-31.948-11.755c-11.8-.627-17.026 3.83-17.026 3.83l32.58-33.515 17.02-17.524s9.164-10.489 20.724-14.724 19.972-5.934 34.888-4.04Z" />
</svg>
